<?xml version="1.0" standalone="no"?>
<!DOCTYPE svg PUBLIC "-//W3C//DTD SVG 20010904//EN"
 "http://www.w3.org/TR/2001/REC-SVG-20010904/DTD/svg10.dtd">
<svg version="1.0" xmlns="http://www.w3.org/2000/svg"
 width="700.000000pt" height="700.000000pt" viewBox="0 0 700.000000 700.000000"
 preserveAspectRatio="xMidYMid meet">
<metadata>
Created by potrace 1.14, written by Peter Selinger 2001-2017
</metadata>
<g transform="translate(0.000000,700.000000) scale(0.100000,-0.100000)"
fill="#000000" stroke="none">
<path d="M320 5792 c-7 -3 -10 -529 -10 -1553 l0 -1550 260 1 259 1 -2 515
c-1 283 0 514 3 514 3 0 3 24 2 54 l-4 55 312 0 c172 0 315 3 318 6 3 2 12 -1
20 -8 13 -10 14 -9 7 2 -6 11 -1 13 24 9 17 -2 31 -1 31 3 0 9 20 6 38 -5 8
-5 11 -3 10 5 -2 8 6 13 19 14 12 0 25 3 29 8 4 4 15 7 25 7 9 0 30 7 45 15
16 8 38 12 49 9 14 -4 16 -3 7 4 -11 7 -10 10 3 16 9 3 22 3 27 -1 6 -3 8 -1
4 5 -3 6 4 14 16 18 13 4 37 17 54 30 17 13 34 21 39 16 5 -4 5 -1 1 6 -7 11
5 17 27 13 5 -1 6 2 3 7 -8 13 64 73 77 65 6 -3 7 -1 3 5 -7 12 58 104 68 96
3 -2 4 -1 2 2 -3 3 5 23 18 43 32 52 86 169 92 202 2 9 9 29 15 45 6 16 13 44
14 63 2 18 7 36 12 40 21 15 19 422 -2 484 -3 7 -7 23 -9 37 -18 89 -55 192
-95 263 -10 19 -25 45 -33 58 -110 196 -353 350 -593 376 -61 6 -1167 11
-1185 5z m650 -554 c0 -5 4 -6 10 -3 9 6 120 7 195 2 22 -1 57 0 78 4 20 3 37
4 37 0 0 -3 46 -6 102 -6 72 0 103 -4 106 -13 2 -6 8 -9 13 -6 14 8 91 -44 84
-56 -4 -6 1 -7 11 -3 14 5 16 3 11 -11 -4 -9 -3 -15 2 -12 23 14 78 -95 97
-194 7 -36 11 -107 9 -160 -7 -186 -77 -318 -198 -371 -50 -22 -62 -22 -374
-24 l-323 -1 0 51 c-1 71 -1 679 -1 747 l1 57 55 -2 c30 -2 55 0 55 3 0 4 7 7
15 7 8 0 15 -4 15 -9z"/>
<path d="M3367 5784 c-1 -1 -29 -4 -62 -8 -157 -17 -305 -84 -402 -184 -19
-19 -38 -30 -44 -26 -7 4 -9 3 -5 -4 5 -9 -43 -93 -65 -112 -3 -3 -14 -26 -25
-52 -10 -25 -23 -44 -28 -41 -5 4 -6 1 -2 -5 3 -6 1 -23 -5 -39 -12 -32 -15
-44 -31 -125 -6 -32 -15 -58 -20 -58 -5 0 -5 -8 1 -17 5 -9 6 -26 2 -37 -4
-12 -7 -61 -7 -111 1 -68 -3 -93 -14 -103 -13 -10 -13 -12 0 -10 11 2 15 -8
16 -42 0 -25 4 -52 7 -60 7 -15 17 -88 20 -142 1 -14 5 -24 9 -22 3 2 9 -15
13 -38 4 -24 12 -49 18 -56 8 -10 7 -16 -4 -23 -13 -8 -5 -13 15 -10 5 1 6 -7
3 -19 -3 -11 -1 -18 4 -14 5 3 9 -2 9 -11 0 -10 -5 -13 -12 -9 -8 4 -10 3 -5
-2 5 -5 13 -10 18 -10 5 -1 12 -2 15 -3 4 0 0 -9 -7 -18 -8 -10 -9 -14 -2 -10
6 4 14 3 18 -3 3 -5 1 -10 -5 -10 -6 0 -17 -6 -25 -12 -7 -7 -28 -24 -47 -38
-46 -35 -116 -108 -146 -152 -13 -21 -29 -35 -35 -31 -6 3 -7 1 -3 -5 4 -7 -2
-31 -14 -55 -45 -87 -50 -99 -50 -118 0 -10 -5 -19 -11 -19 -5 0 -8 -4 -5 -9
3 -4 1 -23 -5 -42 -6 -19 -13 -56 -16 -84 -3 -27 -10 -56 -15 -62 -7 -9 -7
-13 0 -13 7 0 9 -8 4 -19 -4 -11 -5 -69 -2 -130 3 -61 1 -111 -4 -111 -5 0 -4
-6 2 -12 5 -7 13 -38 16 -68 10 -73 11 -80 25 -113 14 -36 14 -44 -1 -50 -8
-3 -6 -6 5 -6 9 -1 17 -6 17 -12 0 -5 -6 -7 -12 -4 -7 4 -6 1 2 -7 9 -7 24
-33 35 -58 10 -25 25 -53 33 -62 8 -10 12 -24 8 -33 -3 -9 -2 -14 2 -11 12 7
44 -33 36 -46 -4 -7 -3 -8 4 -4 15 9 16 -6 2 -20 -7 -7 -6 -11 4 -11 8 0 13 4
10 9 -3 4 -1 8 5 8 5 0 13 -9 16 -20 4 -11 11 -18 16 -15 8 6 13 -9 10 -28 -1
-5 3 -6 9 -2 6 4 23 -5 39 -18 26 -21 28 -26 15 -39 -13 -13 -13 -15 0 -15 8
0 13 4 10 9 -3 4 3 6 13 5 33 -7 53 -19 53 -33 0 -8 6 -11 15 -7 13 4 15 0 11
-22 -3 -15 -2 -24 2 -20 4 3 7 12 7 18 0 5 6 12 14 15 9 3 11 0 6 -7 -4 -8 -2
-11 6 -10 8 1 28 -3 44 -10 17 -7 35 -14 41 -15 7 -1 20 -8 30 -16 11 -9 15
-10 10 -2 -4 6 -2 12 3 12 10 0 15 -14 12 -32 0 -5 4 -8 10 -8 6 0 8 7 5 16
-4 10 -2 14 6 11 7 -2 12 -10 10 -16 -1 -8 2 -9 10 -4 7 4 28 8 45 9 26 1 30
-2 22 -13 -6 -7 -15 -11 -19 -8 -5 3 -11 2 -14 -3 -2 -4 6 -8 19 -8 13 0 21 4
19 8 -6 9 -5 9 43 13 20 2 30 -1 27 -7 -4 -7 0 -7 12 -1 30 15 120 11 116 -5
-1 -8 2 -11 8 -7 6 3 7 11 4 17 -5 7 2 9 19 4 14 -3 29 -1 32 4 5 8 12 7 23
-2 12 -10 14 -10 8 0 -5 8 0 12 13 12 12 0 21 -6 21 -12 0 -9 3 -9 9 1 5 8 16
11 26 8 11 -5 14 -3 9 5 -5 7 -2 9 8 5 9 -3 21 0 28 6 9 9 11 9 7 1 -4 -7 0
-15 9 -18 8 -3 12 -2 9 4 -13 22 7 31 28 13 15 -12 18 -13 9 -2 -6 9 -9 19 -6
22 9 8 33 -16 27 -28 -2 -5 2 -2 10 7 8 10 18 14 22 10 5 -4 5 -2 1 5 -4 7
-14 10 -24 7 -16 -5 -16 -5 0 6 13 8 24 8 40 -1 22 -12 22 -11 8 6 -8 10 -10
16 -3 12 6 -4 13 -2 15 4 2 6 16 12 31 12 15 1 27 5 27 9 0 4 10 10 23 14 12
3 35 16 52 28 16 11 36 19 43 18 8 -2 12 1 9 5 -8 12 50 46 63 38 6 -4 7 1 3
11 -4 12 -3 15 5 10 7 -4 12 -19 13 -34 0 -23 1 -24 8 -7 7 18 9 18 26 -8 9
-15 35 -46 56 -69 21 -23 36 -46 33 -50 -3 -5 0 -7 8 -6 7 2 12 -2 11 -9 -1
-6 4 -14 13 -17 8 -3 13 -2 10 2 -3 5 35 8 84 8 50 -1 90 -4 90 -8 0 -5 8 -8
18 -8 12 0 14 2 4 8 -7 5 23 8 67 8 44 0 78 -2 76 -6 -2 -3 1 -12 7 -20 8 -12
9 -12 4 2 -3 10 -1 20 4 23 6 4 10 1 10 -4 0 -6 5 -11 11 -11 5 0 7 5 4 10 -3
6 -1 10 4 10 6 0 11 -4 11 -10 0 -5 5 -10 11 -10 5 0 8 4 5 8 -2 4 15 8 39 8
24 1 42 -2 40 -6 -2 -4 2 -7 10 -7 8 0 12 4 9 9 -3 4 6 8 19 8 14 0 24 6 24
15 0 8 -2 13 -5 10 -2 -2 -9 1 -16 8 -11 12 -91 109 -111 135 -5 7 -21 24 -35
37 -14 14 -21 25 -17 25 4 0 -8 16 -28 36 -19 19 -32 40 -29 46 4 6 3 8 -4 4
-13 -8 -44 33 -35 47 3 6 1 7 -4 4 -14 -9 -47 29 -37 44 5 8 3 10 -5 5 -13 -9
-43 23 -35 36 3 5 -2 8 -11 8 -9 0 -13 5 -10 10 3 6 2 10 -3 10 -5 0 -21 16
-36 34 l-26 35 27 27 c16 15 19 21 8 13 -19 -14 -19 -13 -4 11 9 14 19 37 23
53 4 16 13 27 24 27 13 0 14 2 3 9 -9 6 -10 11 -2 15 6 4 9 12 6 17 -4 5 -1 9
4 9 6 0 10 3 9 8 -4 15 13 82 20 78 4 -2 8 3 8 12 1 9 4 31 8 47 4 17 8 36 8
43 1 6 8 12 17 12 12 0 13 2 3 8 -9 6 -10 21 -1 68 6 32 13 66 16 74 6 16 8
37 11 115 2 36 5 46 12 35 6 -9 10 -10 10 -3 0 6 -5 15 -10 18 -6 4 -7 11 -4
17 4 6 7 25 8 42 1 17 5 37 10 45 7 10 6 12 -4 6 -10 -6 -11 -2 -7 16 5 22 10
129 8 186 -1 21 -4 21 -141 20 -77 -1 -140 2 -140 6 0 4 -8 4 -17 -1 -10 -5
-42 -7 -71 -6 -34 2 -55 -1 -57 -9 -3 -7 -7 -66 -9 -132 -5 -131 -17 -266 -26
-285 -1 -3 -1 -16 0 -29 1 -14 -2 -21 -9 -17 -6 4 -8 -3 -5 -18 2 -13 0 -36
-6 -51 -5 -14 -12 -40 -15 -58 -4 -18 -10 -33 -15 -35 -5 -2 -6 -11 -2 -20 5
-15 4 -15 -9 -2 -54 55 -128 153 -123 162 4 6 3 8 -4 5 -5 -4 -22 8 -36 25
-14 18 -35 43 -46 56 -12 12 -18 27 -14 34 4 6 3 8 -3 5 -15 -9 -206 220 -197
235 4 6 3 8 -3 5 -6 -4 -28 14 -49 40 -42 50 -54 71 -34 58 9 -5 11 -4 6 4 -4
6 -11 9 -16 6 -12 -7 -41 36 -33 48 3 6 1 7 -4 4 -14 -9 -56 61 -47 75 4 6 2
8 -3 5 -14 -9 -88 137 -78 154 5 7 4 10 -3 5 -13 -8 -63 144 -57 174 2 11 0
20 -4 20 -4 0 -8 6 -9 13 -1 6 -3 23 -5 37 -2 14 2 31 7 39 8 11 8 13 0 8 -8
-5 -12 5 -11 31 0 20 -1 42 -3 47 -6 22 1 86 8 81 4 -3 7 9 6 25 -2 23 2 29
12 25 8 -3 14 -1 14 4 0 6 -4 10 -8 10 -5 0 -9 7 -9 15 0 9 6 14 12 11 6 -2
12 2 12 10 0 7 -5 10 -11 6 -20 -12 27 52 63 86 41 39 95 64 118 55 9 -4 14
-2 11 3 -4 5 4 10 17 10 14 1 27 -6 34 -20 11 -21 11 -21 5 2 -3 12 -1 22 5
22 6 0 11 -4 11 -10 0 -5 5 -10 11 -10 5 0 7 5 4 10 -9 15 4 12 21 -5 11 -11
21 -12 33 -6 12 7 26 5 44 -4 15 -8 27 -11 27 -7 0 4 6 0 13 -9 7 -8 20 -18
29 -22 26 -9 68 -80 56 -94 -6 -8 -3 -15 12 -23 13 -7 19 -18 16 -26 -3 -8 0
-14 6 -14 7 0 3 -6 -8 -14 -10 -8 -16 -18 -11 -22 4 -4 7 -2 7 4 0 7 4 12 8
12 5 0 9 -36 9 -80 1 -80 7 -105 23 -95 5 3 11 -3 13 -12 3 -13 5 -14 6 -3 1
12 14 15 61 14 33 -1 64 -5 68 -9 4 -5 0 -5 -8 0 -8 5 -12 4 -7 0 11 -13 48
-13 53 -1 3 7 34 9 94 6 50 -3 90 -2 90 2 0 4 8 7 18 6 37 -3 53 2 46 14 -9
15 -12 58 -3 58 3 0 3 20 -1 45 -4 24 -6 65 -5 90 0 25 -3 45 -7 45 -4 0 -8
14 -8 30 0 38 -36 172 -56 211 -8 16 -11 29 -7 29 5 0 3 4 -4 8 -6 4 -13 14
-15 22 -2 8 -11 23 -21 34 -10 11 -15 26 -12 34 2 7 1 10 -4 7 -6 -3 -14 1
-18 10 -10 18 -123 136 -123 129 0 -3 -15 6 -32 19 -96 72 -239 112 -421 120
-27 1 -49 1 -50 1z m123 -500 c0 -8 -19 -13 -24 -6 -3 5 1 9 9 9 8 0 15 -2 15
-3z m-420 -1367 c0 -5 12 -21 28 -35 15 -13 22 -22 17 -19 -6 3 -11 -3 -11
-13 0 -12 4 -16 11 -10 6 5 19 -2 34 -18 13 -15 50 -56 82 -92 56 -62 58 -65
41 -84 -16 -20 -16 -20 2 -6 16 13 21 11 55 -26 46 -53 71 -86 71 -97 0 -4 5
-5 10 -2 6 3 10 3 10 -2 0 -4 15 -24 33 -44 61 -70 67 -79 54 -80 -7 0 -6 -3
3 -6 21 -7 99 -95 100 -111 0 -7 5 -10 10 -7 6 3 10 4 10 1 0 -10 -73 -55 -82
-50 -4 3 -8 1 -8 -5 0 -15 -99 -44 -152 -45 -26 -1 -48 -4 -48 -8 0 -7 -34 -3
-48 6 -4 2 -14 1 -21 -3 -19 -12 -144 14 -206 43 -60 27 -150 110 -139 128 4
6 3 8 -3 5 -13 -8 -46 70 -37 85 4 7 2 8 -4 4 -7 -4 -12 -1 -12 8 0 8 -3 22
-7 32 -5 12 -3 15 6 9 9 -5 8 1 -2 16 -11 17 -14 42 -12 89 2 36 4 81 4 101 0
21 8 44 16 53 11 10 12 16 4 16 -8 0 -8 4 -2 13 6 6 13 24 17 39 3 15 21 42
38 60 18 18 31 34 30 36 -2 1 4 10 13 18 8 9 15 13 15 9 0 -3 10 3 22 15 20
18 23 19 40 3 10 -9 18 -21 18 -26z"/>
<path d="M3021 3936 c-9 -10 -9 -16 -1 -21 6 -4 14 -4 17 -1 4 3 1 6 -6 6 -7
0 -9 5 -5 12 5 7 11 5 21 -7 7 -11 13 -14 13 -8 0 6 -6 16 -14 22 -10 8 -16 8
-25 -3z"/>
<path d="M2981 3876 c-9 -11 -9 -16 0 -22 7 -4 9 -3 5 4 -3 6 2 15 11 21 10 6
13 11 7 11 -6 0 -17 -6 -23 -14z"/>
<path d="M2910 3825 c0 -7 30 -13 34 -7 3 4 -4 9 -15 9 -10 1 -19 0 -19 -2z"/>
<path d="M3130 3816 c0 -2 8 -10 18 -17 15 -13 16 -12 3 4 -13 16 -21 21 -21
13z"/>
<path d="M2880 3720 c-9 -6 -10 -10 -3 -10 6 0 15 5 18 10 8 12 4 12 -15 0z"/>
<path d="M3210 3721 c0 -6 4 -12 8 -15 5 -3 9 1 9 9 0 8 -4 15 -9 15 -4 0 -8
-4 -8 -9z"/>
<path d="M3323 3604 c9 -11 14 -24 10 -27 -3 -4 -1 -7 5 -7 19 0 14 15 -10 36
-23 19 -23 19 -5 -2z"/>
<path d="M3373 3505 c0 -8 4 -12 9 -9 5 3 6 10 3 15 -9 13 -12 11 -12 -6z"/>
<path d="M3423 3482 c10 -10 14 -22 10 -27 -5 -4 -2 -5 5 -1 11 6 10 12 -4 27
-9 10 -19 19 -22 19 -3 0 2 -8 11 -18z"/>
<path d="M3440 3440 c-12 -7 -10 -9 7 -7 12 0 19 5 17 9 -6 10 -6 10 -24 -2z"/>
<path d="M5003 5762 c-7 -4 -60 -7 -118 -6 l-105 1 -1 -26 c-1 -14 0 -37 1
-51 2 -22 0 -23 -17 -10 -17 14 -17 14 -2 -5 18 -22 21 -118 5 -144 -6 -9 -5
-12 1 -8 7 4 10 -14 8 -51 -1 -40 -5 -56 -14 -54 -7 1 -10 -2 -6 -8 3 -6 10
-8 14 -5 11 6 8 -96 -3 -114 -6 -9 -5 -12 1 -8 7 4 10 -14 8 -51 -1 -40 -5
-56 -14 -54 -7 1 -10 -2 -6 -8 3 -6 10 -8 14 -6 4 3 7 -30 6 -72 -1 -56 -5
-76 -14 -74 -7 1 -10 -2 -6 -8 3 -6 10 -8 14 -5 11 6 8 -96 -3 -114 -6 -9 -5
-12 1 -8 7 4 10 -14 8 -51 -1 -40 -5 -56 -14 -54 -7 1 -10 -2 -6 -8 3 -6 10
-8 14 -5 11 6 8 -96 -3 -114 -6 -9 -5 -12 1 -8 7 4 10 -14 8 -51 -1 -40 -5
-56 -14 -54 -7 1 -10 -2 -6 -8 3 -6 10 -8 14 -6 4 3 7 -30 6 -72 -1 -56 -5
-76 -14 -74 -7 1 -10 -2 -6 -8 3 -6 10 -8 14 -5 11 6 8 -96 -3 -114 -6 -9 -5
-12 1 -8 7 4 10 -14 8 -51 -1 -40 -5 -56 -14 -54 -7 1 -10 -2 -6 -8 3 -6 10
-8 14 -5 11 6 8 -96 -3 -114 -6 -9 -5 -12 1 -8 7 4 10 -14 8 -51 -1 -40 -5
-56 -14 -54 -7 1 -10 -2 -6 -8 3 -6 10 -8 14 -6 4 3 7 -30 6 -72 -1 -56 -5
-76 -14 -74 -7 1 -10 -2 -6 -8 3 -6 10 -8 14 -5 11 6 8 -96 -3 -114 -6 -9 -5
-12 1 -8 7 4 10 -14 8 -51 -1 -40 -5 -56 -14 -54 -7 1 -10 -2 -6 -8 3 -6 10
-8 14 -5 11 6 8 -96 -3 -114 -6 -9 -5 -12 1 -8 7 4 10 -14 8 -51 -1 -40 -5
-56 -14 -54 -7 1 -10 -2 -6 -8 3 -6 10 -8 14 -6 4 3 7 -30 6 -72 -1 -56 -5
-76 -14 -74 -7 1 -10 -2 -6 -8 3 -6 10 -8 14 -5 11 6 8 -96 -3 -114 -6 -9 -5
-12 1 -8 7 4 10 -33 9 -108 -2 -114 -1 -115 22 -115 13 0 20 -4 17 -10 -3 -5
-2 -10 4 -10 5 0 11 6 14 13 3 8 10 6 21 -8 8 -11 16 -16 16 -11 0 5 7 3 15
-4 13 -11 14 -10 9 4 -4 10 -13 15 -20 12 -8 -3 -14 -1 -14 4 0 6 9 10 20 10
11 0 20 -6 20 -12 0 -9 3 -8 10 2 8 13 11 13 22 -2 10 -12 18 -14 33 -7 19 9
18 9 -2 5 -13 -2 -23 0 -23 4 0 5 25 8 55 7 30 -1 55 -5 55 -9 0 -5 5 -8 11
-8 5 0 8 4 5 8 -3 5 1 9 9 9 8 0 12 -4 9 -9 -3 -4 0 -8 5 -8 6 0 11 4 11 9 0
13 63 11 72 -3 5 -8 8 -7 8 2 0 6 9 12 20 12 14 0 20 7 21 23 4 142 0 977 -5
985 -3 6 -3 13 2 16 4 2 7 29 6 58 l-3 53 74 1 c48 1 72 -2 68 -9 -4 -6 -1 -7
8 -1 21 13 49 15 49 4 0 -6 5 -10 11 -10 5 0 8 4 4 10 -9 15 49 7 61 -9 9 -11
12 -12 19 -1 5 9 4 11 -3 6 -7 -4 -12 -2 -12 3 0 15 13 14 29 -1 8 -7 11 -8 8
-3 -3 7 13 11 44 13 27 1 49 -3 49 -8 0 -6 8 -10 18 -10 13 0 14 2 3 9 -9 6
-5 8 13 9 14 0 26 -4 26 -9 0 -5 5 -9 11 -9 5 0 7 5 4 10 -4 6 5 10 20 10 17
0 24 -4 19 -12 -5 -7 -3 -8 7 -2 8 5 25 10 37 12 17 2 22 -1 16 -10 -6 -10 -5
-10 7 -2 8 6 37 12 64 13 57 1 90 7 107 17 7 4 8 3 4 -4 -4 -7 -2 -12 3 -12 6
0 11 5 11 11 0 5 4 8 10 4 5 -3 7 -12 3 -20 -3 -8 0 -15 6 -15 6 0 10 6 9 13
-2 6 2 11 9 10 8 -2 10 4 6 15 -6 15 -5 15 10 3 9 -7 17 -10 17 -6 0 4 7 2 15
-5 13 -11 14 -10 9 4 -4 11 -13 15 -23 11 -11 -4 -13 -3 -5 5 6 6 25 12 42 13
18 1 32 4 32 7 0 6 56 32 65 30 3 0 13 6 22 15 8 9 22 14 30 11 8 -3 12 -2 9
3 -3 5 2 15 11 22 10 8 14 9 10 2 -4 -6 -2 -15 4 -19 8 -4 9 -3 5 4 -6 11 43
72 58 72 4 0 17 11 30 25 13 14 29 25 35 25 7 0 11 6 9 12 -3 7 1 18 8 25 16
16 28 17 18 1 -4 -7 -3 -8 5 -4 9 6 9 11 -1 24 -10 12 -10 14 0 8 7 -4 12 -1
12 8 0 9 5 16 10 16 6 0 10 6 10 14 0 19 29 48 40 41 5 -3 12 -1 15 5 4 6 3 9
-2 8 -4 -2 -8 2 -8 7 0 6 3 9 7 8 3 -1 5 5 3 15 -1 9 3 28 10 42 21 40 46 110
56 159 14 68 15 70 21 77 4 3 4 17 2 31 -3 18 -1 23 8 17 10 -6 9 -3 -1 9 -7
9 -9 17 -4 17 6 0 9 23 8 50 -1 28 3 50 8 50 5 0 4 7 -3 15 -10 12 -9 15 6 16
15 0 16 2 4 7 -17 8 -20 33 -5 45 7 5 7 10 0 15 -5 4 -11 25 -11 47 -1 22 -5
65 -9 95 -4 30 -8 65 -8 78 -1 12 -4 22 -7 22 -7 0 -8 8 -11 55 -1 14 -5 25
-10 25 -5 0 -9 9 -9 19 0 11 -5 23 -11 26 -5 4 -8 12 -6 18 5 15 -69 157 -103
199 -8 10 -15 22 -15 25 0 4 -16 22 -35 41 -19 19 -34 39 -32 44 1 5 -2 7 -7
4 -5 -4 -18 5 -29 19 -11 14 -25 25 -31 25 -6 0 -11 5 -11 10 0 6 -7 10 -15
10 -8 0 -15 5 -15 10 0 6 -7 10 -15 10 -8 0 -15 5 -15 10 0 6 -7 10 -15 10 -8
0 -15 5 -15 10 0 6 -8 10 -18 10 -10 0 -22 4 -27 8 -32 29 -189 71 -273 74
-24 1 -45 5 -48 10 -3 4 -11 5 -17 1 -16 -10 -87 -11 -93 -1 -3 5 -10 5 -17 1
-16 -9 -217 -10 -223 -1 -3 5 -10 5 -17 1 -16 -9 -217 -10 -223 -1 -3 5 -11 5
-17 1 -16 -9 -209 -11 -222 -2 -6 4 -16 5 -22 1z m406 -496 c10 -6 12 -6 7 2
-4 7 -2 12 3 12 6 0 11 -4 11 -10 0 -5 5 -10 11 -10 5 0 8 3 5 8 -6 10 286 9
303 -2 10 -6 12 -6 7 2 -4 7 -1 12 8 12 10 0 14 -6 10 -17 -5 -17 -4 -17 7 -1
11 14 16 14 33 2 15 -9 25 -10 36 -3 13 9 13 10 -1 6 -9 -3 -22 -1 -30 4 -19
11 48 5 132 -13 10 -2 24 -10 33 -17 9 -7 16 -10 16 -5 1 5 8 0 18 -11 9 -12
25 -24 35 -28 9 -3 17 -14 17 -22 0 -10 5 -13 12 -9 7 4 8 3 4 -4 -4 -7 -3
-12 2 -12 5 0 17 -12 27 -26 12 -18 13 -24 4 -19 -8 3 -5 -1 6 -10 11 -8 20
-21 20 -28 0 -7 6 -22 13 -35 7 -12 10 -27 7 -32 -3 -6 -2 -10 4 -10 5 0 8
-11 6 -25 -1 -14 1 -25 5 -25 4 0 6 -10 6 -22 -1 -13 2 -31 6 -40 6 -12 5 -18
-4 -18 -8 0 -9 -3 -3 -8 14 -9 13 -55 0 -64 -6 -5 -5 -8 2 -8 7 0 11 -6 8 -12
-2 -7 -6 -33 -9 -58 -8 -67 -21 -114 -45 -164 -30 -60 -60 -98 -73 -90 -6 4
-8 2 -4 -4 7 -11 -64 -72 -92 -77 -9 -2 -18 -4 -19 -5 -2 -2 -7 -4 -13 -5 -5
-1 -11 -3 -12 -5 -12 -9 -290 -14 -629 -11 l-76 1 0 463 -1 463 87 0 c47 -1
92 -5 100 -10z"/>
<path d="M5236 5253 c-6 -14 -5 -15 5 -6 7 7 10 15 7 18 -3 3 -9 -2 -12 -12z"/>
<path d="M5262 5245 c0 -11 2 -15 6 -9 12 19 36 22 54 7 13 -12 17 -12 24 -1
4 7 4 10 -1 6 -4 -4 -14 -3 -22 4 -24 20 -59 16 -61 -7z"/>
<path d="M5356 5259 c2 -4 13 -7 24 -6 23 2 17 10 -10 12 -10 1 -17 -2 -14 -6z"/>
<path d="M5470 5266 c0 -2 7 -7 16 -10 8 -3 12 -2 9 4 -6 10 -25 14 -25 6z"/>
<path d="M5630 5266 c0 -2 7 -7 16 -10 8 -3 12 -2 9 4 -6 10 -25 14 -25 6z"/>
<path d="M5670 5260 c0 -5 5 -10 10 -10 6 0 10 5 10 10 0 6 -4 10 -10 10 -5 0
-10 -4 -10 -10z"/>
<path d="M5716 5257 c3 -10 9 -15 12 -12 3 3 0 11 -7 18 -10 9 -11 8 -5 -6z"/>
<path d="M5926 5247 c3 -10 9 -15 12 -12 3 3 0 11 -7 18 -10 9 -11 8 -5 -6z"/>
<path d="M5410 5239 c0 -5 5 -7 10 -4 6 3 10 8 10 11 0 2 -4 4 -10 4 -5 0 -10
-5 -10 -11z"/>
<path d="M5456 5238 c3 -5 10 -6 15 -3 13 9 11 12 -6 12 -8 0 -12 -4 -9 -9z"/>
<path d="M5853 5235 c0 -8 4 -12 9 -9 4 3 8 9 8 15 0 5 -4 9 -8 9 -5 0 -9 -7
-9 -15z"/>
<path d="M5895 5240 c-3 -5 -1 -10 4 -10 6 0 11 5 11 10 0 6 -2 10 -4 10 -3 0
-8 -4 -11 -10z"/>
<path d="M5955 5239 c-4 -6 -5 -12 -2 -15 2 -3 7 2 10 11 7 17 1 20 -8 4z"/>
<path d="M5230 5219 c0 -5 5 -7 10 -4 6 3 10 8 10 11 0 2 -4 4 -10 4 -5 0 -10
-5 -10 -11z"/>
<path d="M5293 5215 c0 -8 4 -12 9 -9 5 3 6 10 3 15 -9 13 -12 11 -12 -6z"/>
<path d="M5973 5215 c0 -8 4 -12 9 -9 5 3 6 10 3 15 -9 13 -12 11 -12 -6z"/>
<path d="M6006 5217 c3 -10 9 -15 12 -12 3 3 0 11 -7 18 -10 9 -11 8 -5 -6z"/>
<path d="M6067 5139 c7 -7 15 -10 18 -7 3 3 -2 9 -12 12 -14 6 -15 5 -6 -5z"/>
<path d="M3310 5266 c0 -2 7 -7 16 -10 8 -3 12 -2 9 4 -6 10 -25 14 -25 6z"/>
<path d="M3370 5260 c0 -5 5 -10 11 -10 5 0 7 5 4 10 -3 6 -8 10 -11 10 -2 0
-4 -4 -4 -10z"/>
<path d="M3495 5249 c-4 -6 -5 -12 -2 -15 2 -3 7 2 10 11 7 17 1 20 -8 4z"/>
<path d="M3533 5241 c0 -11 5 -18 9 -15 4 3 5 11 1 19 -7 21 -12 19 -10 -4z"/>
<path d="M3290 5239 c0 -5 5 -7 10 -4 6 3 10 8 10 11 0 2 -4 4 -10 4 -5 0 -10
-5 -10 -11z"/>
<path d="M3558 5232 c-3 -11 0 -19 7 -19 7 0 10 8 7 19 -2 10 -6 18 -7 18 -1
0 -5 -8 -7 -18z"/>
<path d="M3590 5216 c0 -3 9 -10 20 -16 11 -6 20 -8 20 -6 0 3 -9 10 -20 16
-11 6 -20 8 -20 6z"/>
<path d="M3235 5200 c-3 -5 -1 -10 4 -10 6 0 11 5 11 10 0 6 -2 10 -4 10 -3 0
-8 -4 -11 -10z"/>
<path d="M3182 5167 c-8 -9 -8 -17 0 -27 8 -13 9 -12 5 1 -3 9 0 22 6 28 6 6
8 11 5 11 -3 0 -10 -6 -16 -13z"/>
<path d="M3126 4962 c-3 -5 1 -9 9 -9 8 0 12 4 9 9 -3 4 -7 8 -9 8 -2 0 -6 -4
-9 -8z"/>
<path d="M3755 4860 c-4 -6 -3 -9 2 -8 4 1 18 -3 31 -10 30 -17 28 -8 -2 12
-16 10 -27 12 -31 6z"/>
<path d="M3810 4860 c0 -5 5 -10 11 -10 5 0 7 5 4 10 -3 6 -8 10 -11 10 -2 0
-4 -4 -4 -10z"/>
<path d="M3950 4851 c0 -6 4 -13 10 -16 6 -3 7 1 4 9 -7 18 -14 21 -14 7z"/>
<path d="M4010 4851 c0 -6 4 -13 10 -16 6 -3 7 1 4 9 -7 18 -14 21 -14 7z"/>
<path d="M6633 4525 c0 -8 4 -12 9 -9 5 3 6 10 3 15 -9 13 -12 11 -12 -6z"/>
<path d="M6629 4483 c-13 -16 -12 -17 4 -4 16 13 21 21 13 21 -2 0 -10 -8 -17
-17z"/>
<path d="M6506 4222 c-3 -5 1 -9 9 -9 8 0 12 4 9 9 -3 4 -7 8 -9 8 -2 0 -6 -4
-9 -8z"/>
<path d="M6490 4160 c0 -5 5 -10 11 -10 5 0 7 5 4 10 -3 6 -8 10 -11 10 -2 0
-4 -4 -4 -10z"/>
<path d="M6415 4089 c-4 -6 -5 -12 -2 -15 2 -3 7 2 10 11 7 17 1 20 -8 4z"/>
<path d="M6350 4041 c0 -6 4 -13 10 -16 6 -3 7 1 4 9 -7 18 -14 21 -14 7z"/>
<path d="M6315 4021 c-3 -5 0 -13 6 -17 8 -5 9 -3 4 6 -6 10 -4 12 9 7 10 -4
15 -3 11 3 -8 13 -22 13 -30 1z"/>
<path d="M6230 3950 c-8 -15 -8 -18 3 -14 8 3 14 11 14 19 0 20 -4 19 -17 -5z"/>
<path d="M6160 3920 c-9 -6 -10 -10 -3 -10 6 0 15 5 18 10 8 12 4 12 -15 0z"/>
<path d="M6106 3902 c-3 -5 1 -9 9 -9 8 0 12 4 9 9 -3 4 -7 8 -9 8 -2 0 -6 -4
-9 -8z"/>
<path d="M6155 3889 c-4 -6 -5 -12 -2 -15 2 -3 7 2 10 11 7 17 1 20 -8 4z"/>
<path d="M5975 3850 c10 -11 20 -20 23 -20 3 0 -3 9 -13 20 -10 11 -20 20 -23
20 -3 0 3 -9 13 -20z"/>
<path d="M5268 3849 c-4 -11 1 -15 22 -14 16 0 26 4 23 8 -3 5 -11 6 -18 3 -8
-3 -15 0 -18 7 -2 7 -5 5 -9 -4z"/>
<path d="M5327 3843 c3 -7 6 -13 8 -13 2 0 5 6 8 13 3 8 -1 14 -8 14 -7 0 -11
-6 -8 -14z"/>
<path d="M5380 3856 c0 -3 9 -10 20 -16 11 -6 20 -8 20 -6 0 3 -9 10 -20 16
-11 6 -20 8 -20 6z"/>
<path d="M5597 3843 c3 -7 6 -13 8 -13 2 0 5 6 8 13 3 8 -1 14 -8 14 -7 0 -11
-6 -8 -14z"/>
<path d="M5716 3845 c-3 -8 -1 -15 4 -15 6 0 10 7 10 15 0 8 -2 15 -4 15 -2 0
-6 -7 -10 -15z"/>
<path d="M5766 3848 c3 -5 10 -6 15 -3 13 9 11 12 -6 12 -8 0 -12 -4 -9 -9z"/>
<path d="M5881 3838 c-13 -20 -12 -22 1 -11 8 7 18 10 22 6 4 -4 4 0 0 10 -8
21 -6 21 -23 -5z"/>
<path d="M5910 3853 c0 -1 8 -7 18 -12 13 -7 19 -6 19 2 0 7 -9 13 -19 13 -10
0 -18 -1 -18 -3z"/>
<path d="M5546 3842 c-2 -4 4 -8 15 -8 10 0 19 4 19 8 0 4 -6 8 -14 8 -8 0
-17 -4 -20 -8z"/>
<path d="M5828 3843 c6 -2 18 -2 25 0 6 3 1 5 -13 5 -14 0 -19 -2 -12 -5z"/>
<path d="M5445 3820 c-3 -6 1 -7 9 -4 18 7 21 14 7 14 -6 0 -13 -4 -16 -10z"/>
<path d="M4270 3390 c-9 -6 -10 -10 -3 -10 6 0 15 5 18 10 8 12 4 12 -15 0z"/>
<path d="M2396 3362 c-3 -5 1 -9 9 -9 8 0 12 4 9 9 -3 4 -7 8 -9 8 -2 0 -6 -4
-9 -8z"/>
<path d="M4215 3280 c-3 -5 -1 -10 4 -10 6 0 11 5 11 10 0 6 -2 10 -4 10 -3 0
-8 -4 -11 -10z"/>
<path d="M2427 3259 c7 -7 15 -10 18 -7 3 3 -2 9 -12 12 -14 6 -15 5 -6 -5z"/>
<path d="M2485 3080 c10 -11 20 -20 23 -20 3 0 -3 9 -13 20 -10 11 -20 20 -23
20 -3 0 3 -9 13 -20z"/>
<path d="M3876 2874 c-11 -8 -15 -14 -10 -14 6 0 16 6 23 13 12 10 13 8 7 -8
-6 -16 -5 -18 5 -7 20 19 -2 33 -25 16z"/>
<path d="M3816 2833 c-6 -14 -5 -15 5 -6 7 7 10 15 7 18 -3 3 -9 -2 -12 -12z"/>
<path d="M3867 2839 c7 -7 15 -10 18 -7 3 3 -2 9 -12 12 -14 6 -15 5 -6 -5z"/>
<path d="M3956 2833 c-6 -14 -5 -15 5 -6 7 7 10 15 7 18 -3 3 -9 -2 -12 -12z"/>
<path d="M4755 2840 c3 -5 8 -10 11 -10 2 0 4 5 4 10 0 6 -5 10 -11 10 -5 0
-7 -4 -4 -10z"/>
<path d="M2754 2795 c3 -23 12 -26 13 -5 1 11 -2 20 -7 20 -4 0 -7 -7 -6 -15z"/>
<path d="M3777 2795 c-4 -8 -1 -17 6 -21 7 -4 9 -4 5 1 -4 4 -3 14 3 22 7 8 8
13 1 13 -5 0 -12 -7 -15 -15z"/>
<path d="M3730 2780 c0 -5 5 -10 11 -10 5 0 7 5 4 10 -3 6 -8 10 -11 10 -2 0
-4 -4 -4 -10z"/>
<path d="M3690 2776 c0 -2 8 -10 18 -17 15 -13 16 -12 3 4 -13 16 -21 21 -21
13z"/>
<path d="M3986 2762 c-3 -5 1 -9 9 -9 8 0 12 4 9 9 -3 4 -7 8 -9 8 -2 0 -6 -4
-9 -8z"/>
<path d="M2855 2750 c-3 -5 -1 -10 4 -10 6 0 11 5 11 10 0 6 -2 10 -4 10 -3 0
-8 -4 -11 -10z"/>
<path d="M3670 2746 c0 -2 7 -7 16 -10 8 -3 12 -2 9 4 -6 10 -25 14 -25 6z"/>
<path d="M4315 2709 c-4 -6 -5 -12 -2 -15 2 -3 7 2 10 11 7 17 1 20 -8 4z"/>
<path d="M4348 2713 c7 -3 16 -2 19 1 4 3 -2 6 -13 5 -11 0 -14 -3 -6 -6z"/>
<path d="M4230 2706 c0 -2 9 -6 20 -9 11 -3 18 -1 14 4 -5 9 -34 13 -34 5z"/>
<path d="M4410 2700 c0 -5 5 -10 11 -10 5 0 7 5 4 10 -3 6 -8 10 -11 10 -2 0
-4 -4 -4 -10z"/>
<path d="M4993 2693 c0 -11 7 -20 14 -20 10 0 10 4 1 16 -7 9 -13 18 -15 20
-1 2 -1 -5 0 -16z"/>
<path d="M5030 2700 c0 -5 5 -10 11 -10 5 0 7 5 4 10 -3 6 -8 10 -11 10 -2 0
-4 -4 -4 -10z"/>
<path d="M5113 2695 c0 -8 4 -12 9 -9 4 3 8 9 8 15 0 5 -4 9 -8 9 -5 0 -9 -7
-9 -15z"/>
<path d="M3406 2683 c-6 -14 -5 -15 5 -6 7 7 10 15 7 18 -3 3 -9 -2 -12 -12z"/>
<path d="M3232 2678 c2 -6 10 -13 16 -14 7 -1 8 0 2 3 -5 2 -8 9 -4 14 3 5 0
9 -6 9 -7 0 -10 -5 -8 -12z"/>
<path d="M3270 2680 c0 -5 5 -10 10 -10 6 0 10 5 10 10 0 6 -4 10 -10 10 -5 0
-10 -4 -10 -10z"/>
<path d="M3356 2682 c-3 -5 1 -9 9 -9 8 0 15 4 15 9 0 4 -4 8 -9 8 -6 0 -12
-4 -15 -8z"/>
<path d="M3455 2680 c3 -5 8 -10 11 -10 2 0 4 5 4 10 0 6 -5 10 -11 10 -5 0
-7 -4 -4 -10z"/>
<path d="M4796 2678 c3 -5 10 -6 15 -3 13 9 11 12 -6 12 -8 0 -12 -4 -9 -9z"/>
<path d="M4867 2679 c7 -7 15 -10 18 -7 3 3 -2 9 -12 12 -14 6 -15 5 -6 -5z"/>
<path d="M317 2323 c-2 -5 -4 -35 -3 -68 l1 -60 3163 -2 c1739 -1 3163 2 3163
5 4 22 5 109 1 120 -3 9 -645 12 -3162 12 -1738 0 -3161 -3 -3163 -7z"/>
<path d="M1247 1958 c-37 -16 -51 -30 -70 -68 -21 -42 -24 -60 -22 -162 2
-128 14 -164 72 -199 38 -23 113 -31 157 -16 43 14 83 54 97 95 9 29 14 100
10 150 -1 9 -22 12 -78 10 l-78 -3 0 -40 c0 -38 1 -40 34 -42 19 -2 35 -4 37
-6 1 -1 -4 -17 -11 -35 -18 -41 -55 -57 -101 -42 -42 14 -51 43 -49 158 2 91
16 117 65 125 27 5 80 -17 80 -33 0 -6 23 -10 50 -10 28 0 50 2 50 5 0 3 -9
23 -20 44 -39 77 -135 107 -223 69z"/>
<path d="M4174 1968 c-42 -11 -90 -61 -102 -107 -5 -21 -8 -85 -8 -142 1 -85
5 -111 22 -139 63 -109 251 -99 299 17 8 19 15 58 16 86 2 92 8 86 -81 84
l-80 -1 3 -40 c3 -38 6 -41 33 -41 21 -1 30 -6 32 -21 7 -48 -63 -85 -114 -62
-33 15 -41 45 -39 146 1 101 14 127 65 135 27 5 80 -17 80 -33 0 -6 23 -10 51
-10 45 0 50 2 45 18 -13 33 -50 80 -76 96 -32 18 -104 26 -146 14z"/>
<path d="M4707 1966 c-85 -31 -108 -77 -108 -224 -1 -117 11 -162 52 -198 37
-31 69 -41 125 -38 108 5 153 56 161 184 l6 80 -81 -1 c-74 -1 -80 -3 -84 -22
-8 -47 2 -66 33 -65 38 1 41 -3 29 -39 -19 -54 -95 -66 -132 -22 -15 17 -18
41 -18 121 0 93 1 100 26 123 30 28 76 26 109 -5 14 -13 35 -20 63 -20 49 0
53 11 19 60 -42 64 -128 92 -200 66z"/>
<path d="M5556 1965 c-49 -17 -82 -49 -97 -92 -17 -52 -14 -231 5 -275 51
-118 234 -127 302 -13 27 44 27 253 0 308 -33 66 -129 99 -210 72z m98 -86
c33 -15 42 -48 41 -146 -1 -117 -29 -157 -100 -139 -48 12 -58 50 -56 194 2
82 50 120 115 91z"/>
<path d="M314 1740 c0 -201 2 -230 15 -231 22 -1 217 -1 263 0 36 1 37 1 35
41 l-2 40 -111 0 -112 0 -1 53 0 52 92 0 92 0 3 43 3 42 -95 0 -96 0 1 54 2
53 96 1 c53 0 103 1 111 1 11 1 16 12 16 41 l0 40 -156 0 -156 0 0 -230z"/>
<path d="M709 1963 c-1 -5 -2 -108 -3 -230 l-1 -221 25 -4 c61 -9 60 -11 61
165 l0 162 80 -160 c85 -171 90 -177 162 -167 l27 4 0 229 0 229 -40 0 c-25 0
-40 -5 -41 -12 0 -7 -1 -79 -1 -161 0 -81 -3 -145 -7 -143 -4 3 -40 75 -81
160 l-75 156 -52 0 c-29 0 -54 -3 -54 -7z"/>
<path d="M1580 1740 l0 -230 23 -1 c12 0 32 -2 45 -3 l22 -3 0 234 0 233 -45
0 -45 0 0 -230z"/>
<path d="M1769 1968 c0 -2 -1 -105 -2 -231 l-2 -227 43 0 42 0 1 163 0 162 82
-162 82 -163 52 0 c43 0 53 3 54 18 1 21 1 424 0 435 -1 4 -19 7 -41 7 l-40 0
-1 -167 0 -168 -82 168 -81 167 -53 0 c-29 0 -53 -1 -54 -2z"/>
<path d="M2226 1752 c1 -119 2 -224 3 -232 1 -15 36 -16 283 -11 26 1 27 4 25
41 l-2 40 -113 0 -113 0 2 53 2 53 94 -1 93 -1 0 43 0 43 -96 0 -95 0 3 53 3
52 85 2 c47 1 97 2 111 2 23 1 25 5 25 41 l0 40 -156 0 -155 0 1 -218z"/>
<path d="M2619 1968 c-1 -2 -2 -105 -3 -230 l-1 -228 25 -1 c30 -1 153 -1 233
0 l57 1 0 40 0 40 -113 0 -113 0 1 53 0 52 92 -1 c99 0 104 3 95 63 -3 21 -9
22 -95 25 l-92 3 0 50 0 50 85 2 c47 1 96 2 111 2 22 1 25 6 27 41 l3 40 -156
0 c-85 0 -155 -1 -156 -2z"/>
<path d="M3009 1948 c-1 -29 -1 -421 0 -430 1 -5 20 -8 44 -8 l43 0 -1 80 c-1
85 4 102 30 106 16 2 41 -30 93 -126 l30 -55 56 -3 56 -3 -56 92 c-42 70 -52
94 -42 100 75 42 98 122 58 204 -11 23 -32 47 -46 53 -14 7 -75 12 -144 12
-118 0 -120 0 -121 -22z m223 -75 c20 -18 23 -45 8 -74 -9 -16 -22 -19 -78
-19 l-68 0 2 48 c1 26 2 50 3 55 2 15 114 7 133 -10z"/>
<path d="M3429 1918 c-2 -165 0 -401 4 -404 2 -2 21 -5 43 -7 l39 -2 2 233 3
232 -45 0 -45 0 -1 -52z"/>
<path d="M3615 1743 c-1 -126 3 -230 7 -234 4 -3 23 -3 42 -1 l35 4 -1 154
c-1 85 1 156 4 159 2 2 37 -62 76 -144 40 -82 78 -156 85 -163 9 -9 30 -12 60
-10 l47 4 0 229 0 229 -39 0 c-22 0 -41 -5 -43 -12 -2 -7 -3 -79 -2 -160 0
-82 -2 -148 -5 -147 -3 0 -40 72 -81 159 l-75 159 -55 0 -55 1 0 -227z"/>
<path d="M5030 1740 l0 -230 45 0 45 0 -2 86 c-2 89 6 106 41 97 9 -2 38 -44
65 -94 l49 -89 54 0 54 0 -27 48 c-15 26 -31 52 -35 57 -4 6 -16 26 -27 46
l-19 35 28 16 c58 34 77 122 43 194 -26 54 -56 64 -194 64 l-120 0 0 -230z
m224 134 c19 -18 21 -65 4 -82 -7 -7 -39 -12 -74 -12 l-62 0 -3 33 c-8 71 -4
77 61 77 40 0 64 -5 74 -16z"/>
<path d="M5874 1793 c1 -159 3 -182 21 -213 31 -51 78 -75 150 -74 73 0 114
22 145 76 19 35 21 53 22 211 l1 172 -44 3 -45 3 1 -148 c2 -206 -8 -233 -85
-233 -38 0 -82 41 -80 73 1 12 2 86 1 165 l-1 142 -44 0 -44 0 2 -177z"/>
<path d="M6310 1737 l0 -232 44 3 44 4 0 71 c0 40 0 79 1 88 1 12 16 16 71 17
109 3 156 37 167 120 8 58 -12 108 -55 137 -34 23 -46 25 -154 25 l-118 0 0
-233z m218 137 c15 -10 22 -24 22 -44 0 -42 -34 -62 -101 -58 l-54 3 0 50 c0
28 0 53 2 56 5 12 109 7 131 -7z"/>
<path d="M319 1286 c-1 -1 -3 -31 -4 -68 l-3 -68 3163 0 c2521 0 3164 3 3167
13 2 6 4 37 4 67 l-1 55 -3162 1 c-1740 0 -3164 0 -3164 0z"/>
</g>
</svg>
